<svg width="60" height="60" viewBox="0 0 60 60" fill="none" xmlns="http://www.w3.org/2000/svg">
<path d="M51 50.7V43.2C51 41.1 50.7 39 49.5 36.9C48.3 34.8 46.8 33 44.7 31.8C42.6 30.3 38.1 30 36 30L31.2 35.1L33 39V48L30 51.3L27 48V39L29.1 35.1L24 30C21.6 30 17.1 30.3 15 31.8C12.9 33 11.7 34.8 10.5 36.9C9.3 39 9 40.8 9 43.2V50.7C9 50.7 16.8 54 30 54C43.2 54 51 50.7 51 50.7ZM30 6.30005C24.3 6.30005 21 11.7 21.9 17.7C22.8 23.7 25.8 27.9 30 27.9C34.2 27.9 37.2 23.7 38.1 17.7C39 11.4 35.7 6.30005 30 6.30005Z" fill="#61440C"/>
</svg>
