<svg width="70" height="70" viewBox="0 0 70 70" fill="none" xmlns="http://www.w3.org/2000/svg">
<path d="M35 11.2C48.16 11.2 58.8 21.84 58.8 35C58.8 48.16 48.16 58.8 35 58.8C21.84 58.8 11.2 48.16 11.2 35C11.2 21.84 21.84 11.2 35 11.2ZM35 56C46.62 56 56 46.62 56 35C56 23.38 46.62 14 35 14C23.38 14 14 23.38 14 35C14 46.62 23.38 56 35 56Z" fill="#61440C"/>
<path d="M23.38 32.62L35 44.24L46.62 32.62L48.58 34.58L35 48.16L21.42 34.58L23.38 32.62Z" fill="#61440C"/>
<path d="M36.4 46.2L33.6 46.2L33.6 22.4L36.4 22.4L36.4 46.2Z" fill="#61440C"/>
</svg>
