<svg width="60" height="60" viewBox="0 0 60 60" fill="none" xmlns="http://www.w3.org/2000/svg">
<path d="M17.25 12C16.6533 12 16.081 12.2371 15.659 12.659C15.2371 13.081 15 13.6533 15 14.25V15.75C15 16.3467 14.7629 16.919 14.341 17.341C13.919 17.7629 13.3467 18 12.75 18C12.1533 18 11.581 17.7629 11.159 17.341C10.7371 16.919 10.5 16.3467 10.5 15.75V14.25C10.5 12.4598 11.2112 10.7429 12.477 9.47703C13.7429 8.21116 15.4598 7.5 17.25 7.5C19.0402 7.5 20.7571 8.21116 22.023 9.47703C23.2888 10.7429 24 12.4598 24 14.25V22.5H39V14.25C39 13.6533 38.7629 13.081 38.341 12.659C37.919 12.2371 37.3467 12 36.75 12C36.1533 12 35.581 12.2371 35.159 12.659C34.7371 13.081 34.5 13.6533 34.5 14.25V15.75C34.5 16.3467 34.2629 16.919 33.841 17.341C33.419 17.7629 32.8467 18 32.25 18C31.6533 18 31.081 17.7629 30.659 17.341C30.2371 16.919 30 16.3467 30 15.75V14.25C30 12.4598 30.7112 10.7429 31.977 9.47703C33.2429 8.21116 34.9598 7.5 36.75 7.5C38.5402 7.5 40.2571 8.21116 41.523 9.47703C42.7888 10.7429 43.5 12.4598 43.5 14.25V35.343C42.0461 35.8072 40.526 36.0301 39 36.003V27H24V30.687C22.5277 30.3074 21.0192 30.0852 19.5 30.024V14.25C19.5 13.6533 19.2629 13.081 18.841 12.659C18.419 12.2371 17.8467 12 17.25 12ZM17.439 37.581C15.6941 37.7614 14.0269 38.3955 12.603 39.42C12.1236 39.7757 11.5226 39.9263 10.9321 39.8388C10.3417 39.7513 9.81016 39.4329 9.4545 38.9535C9.09884 38.4741 8.94819 37.8731 9.03567 37.2826C9.12316 36.6922 9.44162 36.1607 9.921 35.805C11.9818 34.3085 14.3994 33.3795 16.932 33.111C20.361 32.721 24.648 33.378 29.634 36.267C38.433 41.373 45.543 38.004 47.625 36.783C48.1398 36.4811 48.7534 36.396 49.331 36.5465C49.9085 36.697 50.4026 37.0707 50.7045 37.5855C51.0065 38.1003 51.0915 38.7139 50.941 39.2915C50.7905 39.869 50.4168 40.3631 49.902 40.665C47.157 42.276 38.187 46.431 27.372 40.161C23.142 37.707 19.821 37.311 17.439 37.581ZM17.439 46.581C15.6941 46.7614 14.0269 47.3955 12.603 48.42C12.1236 48.7757 11.5226 48.9263 10.9321 48.8388C10.3417 48.7513 9.81016 48.4329 9.4545 47.9535C9.09884 47.4741 8.94819 46.8731 9.03567 46.2826C9.12316 45.6922 9.44162 45.1607 9.921 44.805C11.9818 43.3085 14.3994 42.3795 16.932 42.111C20.361 41.721 24.648 42.378 29.634 45.267C38.433 50.373 45.543 47.004 47.625 45.783C48.1398 45.481 48.7534 45.396 49.331 45.5465C49.9085 45.697 50.4026 46.0707 50.7045 46.5855C51.0065 47.1003 51.0915 47.7139 50.941 48.2915C50.7905 48.869 50.4168 49.3631 49.902 49.665C47.157 51.276 38.187 55.431 27.372 49.161C23.142 46.707 19.821 46.311 17.439 46.581Z" fill="#61440C"/>
</svg>
