<svg width="125" height="55" viewBox="0 0 125 55" fill="none" xmlns="http://www.w3.org/2000/svg">
<path d="M47.7823 44V42.8824L48.4689 42.7706C48.6711 42.7387 48.8041 42.6748 48.868 42.579C48.9319 42.4726 48.9638 42.2651 48.9638 41.9564V34.7718C48.9638 34.5163 48.9319 34.3354 48.868 34.2289C48.8041 34.1225 48.6604 34.048 48.4369 34.0054L47.7823 33.9096V32.792H52.604C53.1255 32.792 53.6152 32.8293 54.0728 32.9038C54.5305 32.9676 54.9403 33.0794 55.3022 33.2391C55.6747 33.3987 55.9887 33.6063 56.2442 33.8617C56.5103 34.1065 56.7125 34.4152 56.8509 34.7877C56.9999 35.1496 57.0744 35.5807 57.0744 36.081C57.0744 36.6345 56.9839 37.1187 56.803 37.5339C56.6327 37.9383 56.4038 38.2896 56.1165 38.5876C55.8291 38.875 55.5044 39.1091 55.1425 39.2901C54.7913 39.471 54.4241 39.6041 54.0409 39.6892C53.6577 39.7637 53.2958 39.801 52.9552 39.801C52.6785 39.801 52.4124 39.7957 52.1569 39.785C51.9121 39.7637 51.7365 39.7425 51.6301 39.7212V41.9404C51.6301 42.2278 51.662 42.43 51.7259 42.5471C51.8004 42.6642 51.976 42.7387 52.2527 42.7706L53.3544 42.8824V44H47.7823ZM52.3485 38.4279C53.0085 38.4279 53.5034 38.2364 53.8334 37.8532C54.174 37.47 54.3443 36.8952 54.3443 36.1289C54.3443 35.6499 54.2698 35.2614 54.1207 34.9634C53.9717 34.6653 53.7482 34.4471 53.4502 34.3088C53.1521 34.1598 52.7743 34.0852 52.3166 34.0852H51.6301V38.3641C51.7152 38.3854 51.8163 38.4013 51.9334 38.412C52.0612 38.4226 52.1995 38.4279 52.3485 38.4279ZM67.0422 44.2235C66.5526 44.2235 66.1374 44.1437 65.7968 43.984C65.4669 43.8244 65.1901 43.5902 64.9666 43.2815C64.7537 42.9729 64.5675 42.595 64.4078 42.148L63.8171 40.248C63.7213 39.9926 63.6255 39.7744 63.5297 39.5934C63.4445 39.4019 63.3275 39.2528 63.1785 39.1464C63.0294 39.04 62.8325 38.9867 62.5877 38.9867C62.4919 38.9867 62.4014 38.9867 62.3163 38.9867C62.2311 38.9867 62.1513 38.9974 62.0768 39.0187V41.9564C62.0768 42.2012 62.1087 42.3875 62.1726 42.5152C62.2365 42.6429 62.3961 42.7334 62.6516 42.7866L63.4179 42.8824V44H58.2131V42.8824L58.8996 42.7706C59.1019 42.7387 59.2349 42.6748 59.2988 42.579C59.3626 42.4726 59.3946 42.2651 59.3946 41.9564V34.7718C59.3946 34.5163 59.3626 34.3354 59.2988 34.2289C59.2349 34.1225 59.0912 34.048 58.8677 34.0054L58.2131 33.9096V32.792H63.0667C63.716 32.792 64.312 32.8452 64.8549 32.9517C65.4083 33.0475 65.882 33.2071 66.2758 33.4307C66.6803 33.6542 66.9889 33.9469 67.2018 34.3088C67.4253 34.66 67.5371 35.0964 67.5371 35.618C67.5371 36.0011 67.4626 36.3417 67.3136 36.6398C67.1646 36.9272 66.9677 37.1826 66.7229 37.4061C66.4887 37.619 66.2279 37.8 65.9405 37.949C65.6531 38.098 65.3711 38.2204 65.0943 38.3162C64.8176 38.4013 64.5675 38.4652 64.344 38.5078V38.5557C64.9507 38.6515 65.4243 38.8164 65.7649 39.0506C66.1055 39.2848 66.361 39.6413 66.5313 40.1203L66.9623 41.222C67.0901 41.5519 67.2071 41.8287 67.3136 42.0522C67.42 42.2651 67.5424 42.4247 67.6808 42.5311C67.8192 42.6376 68.0001 42.6908 68.2236 42.6908C68.3301 42.6908 68.4365 42.6802 68.543 42.6589C68.66 42.6376 68.7824 42.611 68.9102 42.579L69.1337 43.5051C68.8995 43.7073 68.6068 43.8776 68.2556 44.016C67.9043 44.1543 67.4999 44.2235 67.0422 44.2235ZM62.7154 37.8691C63.1518 37.8691 63.5137 37.7946 63.8011 37.6456C64.0991 37.486 64.3227 37.2571 64.4717 36.9591C64.6313 36.6504 64.7112 36.2832 64.7112 35.8575C64.7112 35.4211 64.626 35.0751 64.4557 34.8197C64.2961 34.5642 64.0725 34.378 63.7852 34.2609C63.4978 34.1438 63.1518 34.0852 62.7474 34.0852H62.0928V37.8532C62.2205 37.8638 62.3376 37.8691 62.444 37.8691C62.5505 37.8691 62.6409 37.8691 62.7154 37.8691ZM70.0939 44V42.8824L70.7804 42.7706C70.9826 42.7387 71.1157 42.6748 71.1796 42.579C71.2434 42.4726 71.2753 42.2651 71.2753 41.9564V34.7718C71.2753 34.495 71.2381 34.3088 71.1636 34.213C71.0997 34.1065 70.9614 34.0374 70.7485 34.0054L70.0939 33.9096V32.792H78.4759L79.0187 35.7457L77.6457 35.9852C77.5286 35.602 77.4115 35.288 77.2944 35.0432C77.1774 34.7984 77.039 34.6068 76.8793 34.4684C76.7303 34.3194 76.5387 34.2183 76.3046 34.1651C76.081 34.1119 75.799 34.0852 75.4584 34.0852H73.9416V37.6776H74.8676C75.1231 37.6776 75.32 37.6509 75.4584 37.5977C75.5967 37.5339 75.7032 37.4168 75.7777 37.2465C75.8522 37.0762 75.9267 36.8207 76.0012 36.4801L77.055 36.3843V40.0884L76.0012 40.248C75.948 39.8968 75.8841 39.6307 75.8096 39.4498C75.7351 39.2688 75.6234 39.1464 75.4743 39.0825C75.336 39.0187 75.1284 38.9867 74.8517 38.9867H73.9416V42.7068H75.7617C76.113 42.7068 76.4004 42.6748 76.6239 42.611C76.858 42.5365 77.0496 42.4247 77.1986 42.2757C77.3477 42.116 77.4754 41.9032 77.5818 41.6371C77.6883 41.3603 77.7947 41.0197 77.9011 40.6153H79.2902L78.891 44H70.0939ZM80.5532 44V42.8984L81.2238 42.7706C81.4367 42.7387 81.5697 42.6695 81.6229 42.5631C81.6868 42.4566 81.724 42.2917 81.7347 42.0681L82.1817 34.692C82.1924 34.4578 82.1658 34.2928 82.1019 34.197C82.038 34.1012 81.8943 34.0374 81.6708 34.0054L80.9843 33.9096V32.792H85.2791L87.7538 39.322L87.8176 39.2582L90.452 32.792H94.4913V33.9096L93.7409 34.0054C93.5813 34.0267 93.4642 34.0799 93.3897 34.1651C93.3152 34.2396 93.2833 34.4259 93.2939 34.7239L93.7888 42.0202C93.7995 42.2757 93.8314 42.4566 93.8846 42.5631C93.9485 42.6589 94.0922 42.7281 94.3157 42.7706L95.0022 42.8824V44H89.9092V42.8824L90.7873 42.7547C90.9469 42.7334 91.0587 42.6802 91.1226 42.595C91.1971 42.4992 91.2237 42.3289 91.2024 42.0841L90.7713 35.586L90.7394 35.5222L88.0412 42.1959H86.4286L83.7464 35.5062L83.7144 35.5701L83.3472 42.0202C83.3366 42.2331 83.3472 42.4034 83.3792 42.5311C83.4111 42.6482 83.5548 42.7281 83.8102 42.7706L84.5926 42.8824V44H80.5532ZM96.4125 44V42.8824L97.1309 42.7706C97.3438 42.7281 97.4769 42.6536 97.5301 42.5471C97.5939 42.4407 97.6259 42.2438 97.6259 41.9564V34.7718C97.6259 34.495 97.5886 34.3088 97.5141 34.213C97.4502 34.1172 97.3066 34.048 97.083 34.0054L96.4125 33.9096V32.792H101.506V33.9096L100.771 34.0214C100.59 34.0533 100.462 34.1225 100.388 34.2289C100.324 34.3354 100.292 34.5376 100.292 34.8356V42.0202C100.292 42.297 100.324 42.4833 100.388 42.579C100.452 42.6642 100.59 42.7281 100.803 42.7706L101.506 42.8824V44H96.4125ZM103.07 44V42.8824L103.757 42.7706C103.959 42.7387 104.092 42.6748 104.156 42.579C104.22 42.4726 104.252 42.2651 104.252 41.9564V34.7718C104.252 34.495 104.214 34.3088 104.14 34.213C104.076 34.1065 103.938 34.0374 103.725 34.0054L103.07 33.9096V32.792H111.452L111.995 35.7457L110.622 35.9852C110.505 35.602 110.388 35.288 110.271 35.0432C110.154 34.7984 110.015 34.6068 109.856 34.4684C109.707 34.3194 109.515 34.2183 109.281 34.1651C109.057 34.1119 108.775 34.0852 108.435 34.0852H106.918V37.6776H107.844C108.099 37.6776 108.296 37.6509 108.435 37.5977C108.573 37.5339 108.679 37.4168 108.754 37.2465C108.828 37.0762 108.903 36.8207 108.977 36.4801L110.031 36.3843V40.0884L108.977 40.248C108.924 39.8968 108.86 39.6307 108.786 39.4498C108.711 39.2688 108.6 39.1464 108.451 39.0825C108.312 39.0187 108.105 38.9867 107.828 38.9867H106.918V42.7068H108.738C109.089 42.7068 109.377 42.6748 109.6 42.611C109.834 42.5365 110.026 42.4247 110.175 42.2757C110.324 42.116 110.452 41.9032 110.558 41.6371C110.664 41.3603 110.771 41.0197 110.877 40.6153H112.266L111.867 44H103.07ZM122.47 44.2235C121.981 44.2235 121.566 44.1437 121.225 43.984C120.895 43.8244 120.618 43.5902 120.395 43.2815C120.182 42.9729 119.996 42.595 119.836 42.148L119.245 40.248C119.149 39.9926 119.054 39.7744 118.958 39.5934C118.873 39.4019 118.756 39.2528 118.607 39.1464C118.458 39.04 118.261 38.9867 118.016 38.9867C117.92 38.9867 117.83 38.9867 117.744 38.9867C117.659 38.9867 117.579 38.9974 117.505 39.0187V41.9564C117.505 42.2012 117.537 42.3875 117.601 42.5152C117.665 42.6429 117.824 42.7334 118.08 42.7866L118.846 42.8824V44H113.641V42.8824L114.328 42.7706C114.53 42.7387 114.663 42.6748 114.727 42.579C114.791 42.4726 114.823 42.2651 114.823 41.9564V34.7718C114.823 34.5163 114.791 34.3354 114.727 34.2289C114.663 34.1225 114.519 34.048 114.296 34.0054L113.641 33.9096V32.792H118.495C119.144 32.792 119.74 32.8452 120.283 32.9517C120.836 33.0475 121.31 33.2071 121.704 33.4307C122.108 33.6542 122.417 33.9469 122.63 34.3088C122.853 34.66 122.965 35.0964 122.965 35.618C122.965 36.0011 122.891 36.3417 122.742 36.6398C122.593 36.9272 122.396 37.1826 122.151 37.4061C121.917 37.619 121.656 37.8 121.369 37.949C121.081 38.098 120.799 38.2204 120.522 38.3162C120.246 38.4013 119.996 38.4652 119.772 38.5078V38.5557C120.379 38.6515 120.852 38.8164 121.193 39.0506C121.534 39.2848 121.789 39.6413 121.959 40.1203L122.39 41.222C122.518 41.5519 122.635 41.8287 122.742 42.0522C122.848 42.2651 122.971 42.4247 123.109 42.5311C123.247 42.6376 123.428 42.6908 123.652 42.6908C123.758 42.6908 123.865 42.6802 123.971 42.6589C124.088 42.6376 124.211 42.611 124.338 42.579L124.562 43.5051C124.328 43.7073 124.035 43.8776 123.684 44.016C123.332 44.1543 122.928 44.2235 122.47 44.2235ZM118.144 37.8691C118.58 37.8691 118.942 37.7946 119.229 37.6456C119.527 37.486 119.751 37.2571 119.9 36.9591C120.059 36.6504 120.139 36.2832 120.139 35.8575C120.139 35.4211 120.054 35.0751 119.884 34.8197C119.724 34.5642 119.501 34.378 119.213 34.2609C118.926 34.1438 118.58 34.0852 118.175 34.0852H117.521V37.8532C117.649 37.8638 117.766 37.8691 117.872 37.8691C117.979 37.8691 118.069 37.8691 118.144 37.8691Z" fill="white"/>
<path d="M35.5392 34.6385L43.4981 27.7635L46.8027 28.0729L38.2181 35.4727L40.7573 46.6698L37.9546 44.9694L35.5392 34.6385ZM31.1667 21.1292L28.9369 15.8675L30.2064 12.7394L33.8456 21.379L31.1667 21.1292ZM13.3489 45.6569L16.1906 33.4813L6.74207 25.2954L19.1881 24.2183L24.0625 12.7371L28.9369 24.2183L41.3806 25.2954L31.9344 33.4813L34.776 45.6569L24.0625 39.1921L13.3489 45.6569Z" fill="white"/>
</svg>
