<svg width="61" height="60" viewBox="0 0 61 60" fill="none" xmlns="http://www.w3.org/2000/svg">
<path d="M44.5977 3.58594L37.1797 3.9375L7.69883 27.0586L38.3398 21.0234C39.0195 20.4844 39.6172 19.9688 40.1445 19.4883L35.8906 8.85938L37.707 8.13281L41.6563 18C48.1133 10.9453 39.2656 9.66797 44.5977 3.58594ZM42.3359 19.6875L40.7891 21.082L41.9141 23.9062C40.8477 23.8594 39.6641 23.8359 38.3398 23.8242L7.69883 29.8711C7.69883 29.8711 7.73867 30.1289 7.79727 30.5156C8.07383 32.332 6.89141 34.0547 5.09375 34.4531C4.04727 34.6875 3.14727 34.8867 3.14727 34.8867L3.61016 37.3711L42.7695 40.9453L57.5352 34.6289L57.4297 29.543C47.9258 28.5234 56.0938 24.9258 44.0703 24.0352L42.3359 19.6875ZM10.318 33.375L42.5 35.9766L40.3789 37.8633L7.48672 34.8281L10.318 33.375ZM10.1598 39.6562L11.7594 51.0352L11.3527 51.7617L11.3949 53.6133L13.4023 53.8008L15.4063 53.0742V51.5273L14.8438 51.0703L15.9102 40.1719L10.1598 39.6562ZM22.0625 41.0742V49.9219L34.3906 50.9766V42.1641L32.4336 41.9883V48.8672L24.0195 48.1641V41.25L22.0625 41.0742ZM46.6484 41.3906L43.2031 42.668L40.2969 42.4336L42.125 54.082L41.668 54.6797L41.7617 56.7891L43.7656 56.9883L45.6289 56.1211L45.6641 54.5742L45.207 54.1172L46.6484 41.3906ZM22.1914 51.8906L18.8633 53.0039L19.2266 54.6914L31.2148 55.875L33.6758 55.0078L33.8047 52.8633L22.1914 51.8906Z" fill="#61440C"/>
</svg>
