<svg width="60" height="60" viewBox="0 0 60 60" fill="none" xmlns="http://www.w3.org/2000/svg">
<g clip-path="url(#clip0_1_190)">
<path d="M45 51.25V50M45 51.25C45 53.2391 44.2098 55.1468 42.8033 56.5533C41.3968 57.9598 39.4891 58.75 37.5 58.75H31.25V58.125L31.8 57.2325C34.71 52.5036 36.2505 47.06 36.25 41.5075V41.25H45M45 51.25C45 53.2391 45.7902 55.1468 47.1967 56.5533C48.6032 57.9598 50.5109 58.75 52.5 58.75H58.75V58.125L58.2 57.2325C55.29 52.5036 53.7495 47.06 53.75 41.5075V41.25H45M45 41.25V0M8.75 33.75V27.5C8.75 25.8424 9.40848 24.2527 10.5806 23.0806C11.7527 21.9085 13.3424 21.25 15 21.25C16.6576 21.25 18.2473 21.9085 19.4194 23.0806C20.5915 24.2527 21.25 25.8424 21.25 27.5V33.75M6.25 58.75V56.175C6.24936 48.8153 4.62402 41.5465 1.49 34.8875L1.25 34.375V33.75H28.75V34.375L28.51 34.8875C25.376 41.5465 23.7506 48.8153 23.75 56.175V58.75H6.25Z" stroke="#61440C" stroke-width="4"/>
</g>
<defs>
<clipPath id="clip0_1_190">
<rect width="60" height="60" fill="white"/>
</clipPath>
</defs>
</svg>
