<svg width="61" height="60" viewBox="0 0 61 60" fill="none" xmlns="http://www.w3.org/2000/svg">
<path d="M30.5 30C27.75 30 25.5 27.75 25.5 25C25.5 22.25 27.75 20 30.5 20C33.25 20 35.5 22.25 35.5 25C35.5 27.75 33.25 30 30.5 30ZM45.5 25.5C45.5 16.425 38.875 10 30.5 10C22.125 10 15.5 16.425 15.5 25.5C15.5 31.35 20.375 39.1 30.5 48.35C40.625 39.1 45.5 31.35 45.5 25.5ZM30.5 5C41 5 50.5 13.05 50.5 25.5C50.5 33.8 43.825 43.625 30.5 55C17.175 43.625 10.5 33.8 10.5 25.5C10.5 13.05 20 5 30.5 5Z" fill="#61440C"/>
</svg>
