<svg width="60" height="60" viewBox="0 0 60 60" fill="none" xmlns="http://www.w3.org/2000/svg">
<path d="M30 55C30 55 50 40 50 23.75C50 13.395 41.0462 5 30 5C18.9538 5 10 13.395 10 23.75C10 40 30 55 30 55Z" stroke="#61440C" stroke-width="4" stroke-linejoin="round"/>
<path d="M26.25 17.5V37.5" stroke="#61440C" stroke-width="4" stroke-linecap="round" stroke-linejoin="round"/>
<path d="M26.25 17.5H33.75C35.0761 17.5 36.3479 18.0268 37.2855 18.9645C38.2232 19.9021 38.75 21.1739 38.75 22.5C38.75 23.8261 38.2232 25.0979 37.2855 26.0355C36.3479 26.9732 35.0761 27.5 33.75 27.5H26.25V17.5Z" stroke="#61440C" stroke-width="4" stroke-linejoin="round"/>
</svg>
