<svg width="60" height="60" viewBox="0 0 60 60" fill="none" xmlns="http://www.w3.org/2000/svg">
<path d="M10.3125 30L2.8125 17L19.3125 7.5H22.5C23.1667 9.5 23.9583 11.25 24.875 12.75C25.7917 14.25 27.5 15 30 15C32.5 15 34.2083 14.25 35.125 12.75C36.0417 11.25 36.8333 9.5 37.5 7.5H40.6875L57.125 17.0625L49.6875 30L45 27.4375V39.4375L41.0625 42.875C40.9375 42.9583 40.7708 43.0625 40.5625 43.1875C40.3542 43.3125 40.1667 43.4167 40 43.5V18.9375L47.8125 23.25L50.3125 18.875L40.75 13.3125C39.75 15.3542 38.2808 16.9792 36.3425 18.1875C34.4042 19.3958 32.29 20 30 20C27.7083 20 25.5942 19.3958 23.6575 18.1875C21.7208 16.9792 20.2517 15.3542 19.25 13.3125L9.625 18.875L12.1875 23.25L20 18.9375V33.75C19.125 33.8333 18.2708 33.9692 17.4375 34.1575C16.6042 34.3458 15.7917 34.6058 15 34.9375V27.4375L10.3125 30ZM11.625 48.4375L8.375 44.625L13.8125 40C14.7708 39.1667 15.865 38.5308 17.095 38.0925C18.325 37.6542 19.6058 37.4358 20.9375 37.4375C22.2708 37.4375 23.5417 37.6567 24.75 38.095C25.9583 38.5333 27.0417 39.1683 28 40L35.25 46.1875C35.75 46.6042 36.3442 46.9275 37.0325 47.1575C37.7208 47.3875 38.4183 47.5017 39.125 47.5C39.875 47.5 40.5733 47.3958 41.22 47.1875C41.8667 46.9792 42.4392 46.6458 42.9375 46.1875L48.375 41.5L51.625 45.375L46.1875 50C45.2292 50.8333 44.1458 51.4583 42.9375 51.875C41.7292 52.2917 40.4583 52.5 39.125 52.5C37.7917 52.5 36.5108 52.2917 35.2825 51.875C34.0542 51.4583 32.96 50.8333 32 50L24.75 43.8125C24.25 43.3958 23.6775 43.0733 23.0325 42.845C22.3875 42.6167 21.6892 42.5017 20.9375 42.5C20.2292 42.5 19.5317 42.615 18.845 42.845C18.1583 43.075 17.5642 43.3975 17.0625 43.8125L11.625 48.4375Z" fill="#61440C"/>
</svg>
