<svg width="61" height="60" viewBox="0 0 61 60" fill="none" xmlns="http://www.w3.org/2000/svg">
<g clip-path="url(#clip0_1_75)">
<path d="M30.5 52.5C28.75 52.5 27.2708 51.8958 26.0625 50.6875C24.8542 49.4792 24.25 48 24.25 46.25C24.25 44.5 24.8542 43.0208 26.0625 41.8125C27.2708 40.6042 28.75 40 30.5 40C32.25 40 33.7292 40.6042 34.9375 41.8125C36.1458 43.0208 36.75 44.5 36.75 46.25C36.75 48 36.1458 49.4792 34.9375 50.6875C33.7292 51.8958 32.25 52.5 30.5 52.5ZM16.375 38.375L11.125 33C13.5833 30.5417 16.4692 28.5942 19.7825 27.1575C23.0958 25.7208 26.6683 25.0017 30.5 25C34.3333 25 37.9067 25.7292 41.22 27.1875C44.5333 28.6458 47.4183 30.625 49.875 33.125L44.625 38.375C42.7917 36.5417 40.6667 35.1042 38.25 34.0625C35.8333 33.0208 33.25 32.5 30.5 32.5C27.75 32.5 25.1667 33.0208 22.75 34.0625C20.3333 35.1042 18.2083 36.5417 16.375 38.375ZM5.75 27.75L0.5 22.5C4.33333 18.5833 8.8125 15.5208 13.9375 13.3125C19.0625 11.1042 24.5833 10 30.5 10C36.4167 10 41.9375 11.1042 47.0625 13.3125C52.1875 15.5208 56.6667 18.5833 60.5 22.5L55.25 27.75C52.0417 24.5417 48.3233 22.0317 44.095 20.22C39.8667 18.4083 35.335 17.5017 30.5 17.5C25.6667 17.5 21.1358 18.4067 16.9075 20.22C12.6792 22.0333 8.96 24.5433 5.75 27.75Z" fill="#61440C"/>
</g>
<defs>
<clipPath id="clip0_1_75">
<rect width="60" height="60" fill="white" transform="translate(0.5)"/>
</clipPath>
</defs>
</svg>
