<svg width="60" height="60" viewBox="0 0 60 60" fill="none" xmlns="http://www.w3.org/2000/svg">
<path d="M25 55V50H57.5V55H25ZM27.5 47.5C27.5 44.125 28.5625 41.1775 30.6875 38.6575C32.8125 36.1375 35.5 34.585 38.75 34V32.4375C38.75 31.7292 38.99 31.1358 39.47 30.6575C39.95 30.1792 40.5433 29.9392 41.25 29.9375C41.9583 29.9375 42.5525 30.1775 43.0325 30.6575C43.5125 31.1375 43.7517 31.7308 43.75 32.4375V34C46.9583 34.5833 49.6358 36.1358 51.7825 38.6575C53.9292 41.1792 55.0017 44.1267 55 47.5H27.5ZM34.0625 42.4375H48.3125C47.5208 41.3125 46.51 40.4058 45.28 39.7175C44.05 39.0292 42.7067 38.6858 41.25 38.6875C39.75 38.6875 38.375 39.0317 37.125 39.72C35.875 40.4083 34.8542 41.3142 34.0625 42.4375ZM2.5 32.5V5H17.5V8.625L35 3.75L55 10V12.5C55 14.5833 54.2708 16.3542 52.8125 17.8125C51.3542 19.2708 49.5833 20 47.5 20H42.5V21.5C42.5 22.5417 42.1975 23.49 41.5925 24.345C40.9875 25.2 40.2067 25.8142 39.25 26.1875L22.375 32.5H2.5ZM7.5 27.5H12.5V10H7.5V27.5ZM17.5 27.5H21.5L36 22.1875C36.4583 22.0208 36.8233 21.74 37.095 21.345C37.3667 20.95 37.5017 20.5017 37.5 20H33.0625L25.75 22.375L24.25 17.625L32.0625 15H47.5C47.875 15 48.3442 14.8642 48.9075 14.5925C49.4708 14.3208 49.7517 13.9983 49.75 13.625L34.875 9L17.5 13.75V27.5Z" fill="#61440C"/>
</svg>
