<svg width="61" height="60" viewBox="0 0 61 60" fill="none" xmlns="http://www.w3.org/2000/svg">
<g clip-path="url(#clip0_1_95)">
<path d="M53 22.5V17.5C53 13.375 49.625 10 45.5 10H35.5C33.575 10 31.825 10.75 30.5 11.95C29.175 10.75 27.425 10 25.5 10H15.5C11.375 10 8 13.375 8 17.5V22.5C3.875 22.5 0.5 25.875 0.5 30V42.5C0.5 46.625 3.875 50 8 50V55H13V50H48V55H53V50C57.125 50 60.5 46.625 60.5 42.5V30C60.5 25.875 57.125 22.5 53 22.5ZM35.5 15H45.5C46.875 15 48 16.125 48 17.5V24.45C46.475 25.825 45.5 27.8 45.5 30V35H33V17.5C33 16.125 34.125 15 35.5 15ZM13 17.5C13 16.125 14.125 15 15.5 15H25.5C26.875 15 28 16.125 28 17.5V35H15.5V30C15.5 27.8 14.525 25.825 13 24.45V17.5ZM55.5 42.5C55.5 43.875 54.375 45 53 45H8C6.625 45 5.5 43.875 5.5 42.5V30C5.5 28.625 6.625 27.5 8 27.5C9.375 27.5 10.5 28.625 10.5 30V40H50.5V30C50.5 28.625 51.625 27.5 53 27.5C54.375 27.5 55.5 28.625 55.5 30V42.5Z" fill="#61440C"/>
</g>
<defs>
<clipPath id="clip0_1_95">
<rect width="60" height="60" fill="white" transform="translate(0.5)"/>
</clipPath>
</defs>
</svg>
