<svg width="60" height="60" viewBox="0 0 60 60" fill="none" xmlns="http://www.w3.org/2000/svg">
<path d="M35.67 30.3676L33.5375 32.5001L51.2125 50.1776L47.68 53.7126L30 36.0376L12.32 53.7126L8.785 50.1776L32.1325 26.8301C30.6625 23.1876 32.1825 17.9426 36.185 13.9401C41.0675 9.0576 47.795 7.8701 51.21 11.2876C54.63 14.7051 53.4425 21.4326 48.56 26.3126C44.555 30.3176 39.3125 31.8376 35.67 30.3676ZM10.555 9.5176L27.35 26.3126L20.2775 33.3851L10.555 23.6601C8.68029 21.7848 7.62714 19.2417 7.62714 16.5901C7.62714 13.9385 8.68029 11.3954 10.555 9.5201M45.0275 22.7801C48.17 19.6376 48.8175 15.9651 47.6775 14.8251C46.54 13.6851 42.8675 14.3351 39.725 17.4751C36.58 20.6201 35.9325 24.2926 37.0725 25.4326C38.2125 26.5701 41.885 25.9201 45.0275 22.7801Z" fill="#61440C"/>
</svg>
